<svg id="Layer_1" data-name="Layer 1" xmlns="http://www.w3.org/2000/svg" viewBox="0 0 221.59852 37.03109"><defs><style>.cls-1{fill:#f76902;}</style></defs><rect x="76.42174" y="6.03068" width="0.38184" height="24.96973"/><path class="cls-1" d="M39.57169,8.69993c.42994-1.12487,1.84974-1.12487,2.98962-1.12487h.212V6.02429s-4.44371.098-5.80284.098c-1.4002,0-5.55276-.098-5.55276-.098V7.57506h.212c1.13982,0,2.55968,0,2.98859,1.12291a21.36126,21.36126,0,0,1,.35695,4.85438v9.90674a21.4039,21.4039,0,0,1-.35592,4.85341c-.42994,1.12388-1.8498,1.12388-2.98962,1.12388h-.212v1.55181c-.0001-.00388,3.5923-.153,5.55912-.153,2.264,0,5.79648.153,5.79648.153V29.43638h-.212c-1.13988,0-2.55968,0-2.98865-1.12187a21.37019,21.37019,0,0,1-.35695-4.85542V13.55235A21.39209,21.39209,0,0,1,39.57169,8.69993Z"/><path class="cls-1" d="M46.14387,6.04891v6.47521h1.53979l.007-.204c.141-4.21347,1.75277-4.39143,5.38434-4.39143.125,0,.25,0,.37294-.001.90291-.006,1.75479-.011,2.08971.322a.62682.62682,0,0,1,.167.46894V25.74045c0,2.52569-.354,3.56956-3.91053,3.71658l-.203.008V31.0078s4.14644-.152,6.54562-.152c1.83163,0,5.9208.152,5.9208.152V29.465l-.20292-.008c-3.5576-.147-3.91053-1.19089-3.91053-3.71658V8.71856a.56271.56271,0,0,1,.163-.42194c.41-.403,1.53985-.38594,2.44769-.37294.172.003.341.005.501.005,3.55156,0,4.69638,1.02783,4.90338,4.39747l.012.198H69.5V6.04891s-8.96243.05844-11.67806.05844S46.14387,6.04891,46.14387,6.04891Z"/><path class="cls-1" d="M27.97229,29.43739a4.44236,4.44236,0,0,1-3.50458-1.84481l-7.37109-8.462c3.88153-.50593,6.27424-3.07262,6.27424-6.77816A5.45981,5.45981,0,0,0,20.6032,7.17909,12.28855,12.28855,0,0,0,14.668,6.02628c-.77792.019-2.64866.08343-4.70941.08343-2.13714,0-6.57722-.08643-6.57722-.08643V7.57406h.30794C4.86612,7.567,6.191,7.57205,6.542,8.68994a22.29994,22.29994,0,0,1,.32295,4.58941V23.45809a36.24205,36.24205,0,0,1-.14966,3.99725,4.81123,4.81123,0,0,1-.17427.86615c-.36,1.11389-1.79482,1.11389-2.94867,1.11389h-.211v1.55076s3.456-.15195,5.76631-.15195c1.98614,0,5.44042.14809,5.44031.15195V29.43538h-.307c-1.15788.005-2.47071.002-2.85366-1.1159a4.83029,4.83029,0,0,1-.17393-.86414,33.45853,33.45853,0,0,1-.149-3.72525V19.56861c1.37886.012,1.49884.157,2.20872,1.01386.131.158.281.338.454.53795l6.15219,7.634,1.8088,2.23171s1.98335-.08368,2.94727-.08368c1.40155,0,3.476.08674,3.476.08674V29.46534ZM11.10437,17.87278s-.001-9.01385-.002-9.06688c-.006-.35994-.016-.85188.284-.99084a19.72941,19.72941,0,0,1,2.32375-.019c3.16159,0,4.97638,1.85078,4.97638,5.07542,0,2.35066-.62493,3.6995-2.02576,4.37544C15.35489,17.87778,11.10437,17.87278,11.10437,17.87278Z"/><path d="M83.35205,9.98926h5.74707V11.2085H86.9502v5.92675H85.501V11.2085H83.35205Z"/><path d="M91.08105,12.67773h.03028a1.63439,1.63439,0,0,1,1.48926-.80957,1.76414,1.76414,0,0,1,1.769,1.919v3.34814H93.01025V13.98682a.85344.85344,0,0,0-.88964-.93946,1.072,1.072,0,0,0-1.03956,1.17969v2.9082H89.72217v-7.146h1.35888Z"/><path d="M94.9624,14.56689a2.53679,2.53679,0,0,1,2.52832-2.69873c1.64942,0,2.52881,1.25928,2.52881,3.08838H96.30176a1.27419,1.27419,0,0,0,1.30908,1.2793.95715.95715,0,0,0,.98975-.62988h1.33886a2.20008,2.20008,0,0,1-2.31836,1.6792A2.53793,2.53793,0,0,1,94.9624,14.56689Zm1.35938-.5498h2.27881a1.08179,1.08179,0,0,0-1.08985-1.09961A1.141,1.141,0,0,0,96.32178,14.01709Z"/><path d="M102.12207,14.92627h1.419c.10009.85986.58984,1.19971,1.60937,1.19971.73975,0,1.38916-.26026,1.38916-.91944,0-.6997-.67969-.83984-1.769-1.08984-1.2793-.28955-2.44873-.6294-2.44873-2.11865,0-1.40918,1.14941-2.13867,2.73877-2.13867,1.60888,0,2.64843.78955,2.7583,2.22851h-1.38916a1.23246,1.23246,0,0,0-1.3794-1.0791c-.77929,0-1.28906.32959-1.28906.83935,0,.57959.49951.74952,1.55908.9795,1.46924.31982,2.66846.66943,2.66846,2.209,0,1.44922-1.16943,2.25879-2.77832,2.25879C103.27148,17.29541,102.17188,16.43555,102.12207,14.92627Z"/><path d="M108.40234,12.0083h.70948V10.40918h1.3291V12.0083h.87939v.89941h-.87939V15.626a.44982.44982,0,0,0,.50976.50976c.16993,0,.39991-.00976.39991-.00976v.99951s-.31006.01953-.84961.01953c-.65967,0-1.38916-.25977-1.38916-1.229V12.90771h-.70948Z"/><path d="M115.26025,17.13525v-.59961H115.23a1.64512,1.64512,0,0,1-1.46924.73975,1.67365,1.67365,0,0,1-1.77881-1.84912v-3.418h1.34912v3.188c0,.59961.27.92969.84961.92969a1.0355,1.0355,0,0,0,1.0293-1.15967v-2.958h1.35938v5.12695Z"/><path d="M117.20215,14.57666c0-1.59912.90967-2.7085,2.189-2.7085a1.62585,1.62585,0,0,1,1.44922.75977h.02979V9.98926h1.35937v7.146h-1.30957v-.66943h-.02a1.70553,1.70553,0,0,1-1.52881.81934C118.08154,17.28516,117.20215,16.23584,117.20215,14.57666Zm3.69775.02979c0-.9795-.31982-1.63868-1.189-1.63868-.75,0-1.1294.65918-1.1294,1.60889,0,.98926.38965,1.56934,1.08936,1.56934C120.48047,16.146,120.8999,15.5459,120.8999,14.60645Z"/><path d="M122.86182,14.56689a2.53678,2.53678,0,0,1,2.52832-2.69873c1.64941,0,2.52881,1.25928,2.52881,3.08838h-3.71778a1.27419,1.27419,0,0,0,1.30908,1.2793A.95713.95713,0,0,0,126.5,15.606h1.33887a2.20008,2.20008,0,0,1-2.31836,1.6792A2.53792,2.53792,0,0,1,122.86182,14.56689Zm1.35937-.5498H126.5a1.08178,1.08178,0,0,0-1.08984-1.09961A1.14106,1.14106,0,0,0,124.22119,14.01709Z"/><path d="M129.88086,12.70752h.02978a1.66713,1.66713,0,0,1,1.51954-.83936,1.76414,1.76414,0,0,1,1.769,1.919v3.34814h-1.35938V13.98682a.85344.85344,0,0,0-.88964-.93946,1.072,1.072,0,0,0-1.03956,1.17969v2.9082h-1.35888V12.0083h1.3291Z"/><path d="M133.64209,12.0083h.70947V10.40918h1.3291V12.0083h.8794v.89941h-.8794V15.626a.44982.44982,0,0,0,.50977.50976c.16992,0,.3999-.00976.3999-.00976v.99951s-.31006.01953-.84961.01953c-.65967,0-1.38916-.25977-1.38916-1.229V12.90771h-.70947Z"/><path d="M139.05176,9.98926H140.501V12.7876h2.8081V9.98926h1.44922v7.146h-1.44922V13.98682H140.501v3.14843h-1.44922Z"/><path d="M148.82031,16.56543h-.02a1.57216,1.57216,0,0,1-1.50927.68994c-1.04932,0-1.78907-.5498-1.78907-1.56933,0-1.1294.91944-1.48926,2.0586-1.64893.84961-.12012,1.23974-.18994,1.23974-.57959,0-.37012-.29-.60986-.85986-.60986-.63965,0-.94922.23-.98926.71972H145.7417c.04-.8999.70947-1.68945,2.209-1.68945,1.53907,0,2.1587.68994,2.1587,1.88916v2.6084c0,.39013.06005.61963.17968.71v.0498H148.98A1.38679,1.38679,0,0,1,148.82031,16.56543Zm.00977-1.23926v-.76953a3.78618,3.78618,0,0,1-.94971.29981c-.70947.16015-1.05908.31982-1.05908.7998,0,.47949.31982.64941.79932.64941C148.40039,16.30566,148.83008,15.82617,148.83008,15.32617Z"/><path d="M150.9917,9.98926h1.35889v7.146H150.9917Z"/><path d="M153.27148,9.98926h1.35889v7.146h-1.35889Z"/><path d="M156.91162,12.0083h.69922v-.46c0-1.24951.96973-1.689,2.27881-1.54932v1.04981c-.63965-.03028-.91944.0498-.91944.57959v.37988h.91944v.93945h-.91944v4.1875h-1.35937v-4.1875h-.69922Z"/><path d="M160.11133,14.57666a2.67839,2.67839,0,1,1,5.35644,0,2.67839,2.67839,0,1,1-5.35644,0Zm3.97754,0c0-.99951-.46973-1.6792-1.29883-1.6792-.83984,0-1.29932.67969-1.29932,1.6792s.45948,1.66895,1.29932,1.66895C163.61914,16.24561,164.08887,15.57617,164.08887,14.57666Z"/><path d="M167.41016,12.82764h.03027a1.34381,1.34381,0,0,1,1.25879-.8794.88272.88272,0,0,1,.32031.04v1.189h-.03027a1.29193,1.29193,0,0,0-1.5293,1.45947v2.49853h-1.3584V12.0083h1.3086Z"/><path d="M85.48378,19.98926h5.25684V21.2085H86.933v1.59912h3.33789v1.18945H86.933v1.92871h3.83789v1.20947H85.48378Z"/><path d="M93.07265,24.4165l-1.66894-2.4082H92.953L93.8622,23.477h.02l.85987-1.46875h1.40918l-1.58936,2.39844,1.8291,2.72851H94.77187L93.82265,25.436h-.02l-1.10937,1.69921H91.204Z"/><path d="M96.91347,22.0083h1.30908V22.648h.02979a1.79131,1.79131,0,0,1,1.50928-.77979c1.35937,0,2.229,1.10938,2.229,2.7085,0,1.65918-.89941,2.7085-2.21875,2.7085a1.652,1.652,0,0,1-1.47949-.7295h-.02v2.25879H96.91347Zm3.69776,2.6084c0-.96973-.33985-1.64893-1.1792-1.64893-.84961,0-1.18946.7295-1.18946,1.64893,0,.9292.42969,1.53906,1.23926,1.53906C100.17128,26.15576,100.61123,25.58594,100.61123,24.6167Z"/><path d="M102.64394,19.98926h1.35889v7.146h-1.35889Z"/><path d="M104.65371,24.57666a2.67863,2.67863,0,1,1,2.67871,2.7085A2.60676,2.60676,0,0,1,104.65371,24.57666Zm3.97754,0c0-.99951-.46973-1.6792-1.29883-1.6792-.83985,0-1.29932.67969-1.29932,1.6792s.45947,1.66895,1.29932,1.66895C108.16152,26.24561,108.63125,25.57617,108.63125,24.57666Z"/><path d="M111.95253,22.82764h.02979a1.34489,1.34489,0,0,1,1.25928-.8794.88272.88272,0,0,1,.32031.04v1.189h-.03027a1.29193,1.29193,0,0,0-1.5293,1.45947v2.49853h-1.35889v-5.127h1.30908Z"/><path d="M117.07168,26.56543h-.02a1.57219,1.57219,0,0,1-1.50928.68994c-1.04932,0-1.78906-.5498-1.78906-1.56933,0-1.1294.91943-1.48926,2.05859-1.64893.84961-.12012,1.23975-.18994,1.23975-.57959,0-.37012-.29-.60986-.85987-.60986-.63965,0-.94922.23-.98926.71972h-1.20947c.04-.8999.70947-1.68945,2.209-1.68945,1.53906,0,2.15869.68994,2.15869,1.88916v2.6084c0,.39013.06006.61963.17969.71v.0498h-1.30909A1.38681,1.38681,0,0,1,117.07168,26.56543Zm.00976-1.23926v-.76953a3.786,3.786,0,0,1-.94971.29981c-.70947.16015-1.05908.31982-1.05908.7998,0,.47949.31983.64941.79932.64941C116.65175,26.30566,117.08144,25.82617,117.08144,25.32617Z"/><path d="M118.82363,22.0083h.70947V20.40918h1.3291V22.0083h.8794v.89941h-.8794V25.626a.44982.44982,0,0,0,.50977.50976c.16992,0,.3999-.00976.3999-.00976v.99951s-.31006.01953-.84961.01953c-.65967,0-1.38916-.25977-1.38916-1.229V22.90771h-.70947Z"/><path d="M122.44326,19.98926h1.35888V21.2085h-1.35888Zm0,2.019h1.35888v5.127h-1.35888Z"/><path d="M124.43349,24.57666a2.67864,2.67864,0,1,1,2.67871,2.7085A2.60677,2.60677,0,0,1,124.43349,24.57666Zm3.97754,0c0-.99951-.46973-1.6792-1.29883-1.6792-.83984,0-1.29931.67969-1.29931,1.6792s.45947,1.66895,1.29931,1.66895C127.9413,26.24561,128.411,25.57617,128.411,24.57666Z"/><path d="M131.75234,22.70752h.02978a1.66713,1.66713,0,0,1,1.51954-.83936,1.76414,1.76414,0,0,1,1.769,1.91895v3.34814h-1.35938V23.98682a.85344.85344,0,0,0-.88964-.93946,1.072,1.072,0,0,0-1.03956,1.17969v2.9082h-1.35888v-5.127h1.3291Z"/><path d="M140.66152,26.56543h-.02a1.57217,1.57217,0,0,1-1.50928.68994c-1.04931,0-1.78906-.5498-1.78906-1.56933,0-1.1294.91943-1.48926,2.05859-1.64893.84961-.12012,1.23975-.18994,1.23975-.57959,0-.37012-.29-.60986-.85986-.60986-.63965,0-.94922.23-.98926.71972h-1.20947c.04-.8999.70947-1.68945,2.209-1.68945,1.53906,0,2.15869.68994,2.15869,1.88916v2.6084c0,.39013.06006.61963.17969.71v.0498h-1.30908A1.38664,1.38664,0,0,1,140.66152,26.56543Zm.00976-1.23926v-.76953a3.786,3.786,0,0,1-.9497.29981c-.70947.16015-1.05908.31982-1.05908.7998,0,.47949.31982.64941.79931.64941C140.2416,26.30566,140.67128,25.82617,140.67128,25.32617Z"/><path d="M144.142,22.70752h.02978a1.66713,1.66713,0,0,1,1.51953-.83936,1.76415,1.76415,0,0,1,1.769,1.91895v3.34814H146.101V23.98682a.85344.85344,0,0,0-.88965-.93946,1.07194,1.07194,0,0,0-1.03955,1.17969v2.9082h-1.35888v-5.127h1.3291Z"/><path d="M148.05312,24.57666c0-1.59912.90967-2.7085,2.189-2.7085a1.62584,1.62584,0,0,1,1.44921.75977h.02979V19.98926h1.35937v7.146h-1.30957v-.66943h-.02a1.70553,1.70553,0,0,1-1.5288.81934C148.93252,27.28516,148.05312,26.23584,148.05312,24.57666Zm3.69775.02979c0-.9795-.31982-1.63868-1.189-1.63868-.75,0-1.12939.65918-1.12939,1.60889,0,.98926.38964,1.56934,1.08935,1.56934C151.33144,26.146,151.75087,25.5459,151.75087,24.60645Z"/><path d="M155.75283,19.98926h2.78857c1.90869,0,3.13819,1.53906,3.13819,3.64795a3.58649,3.58649,0,0,1-1.13965,2.80859,3.19325,3.19325,0,0,1-2.11866.68945h-2.66845Zm2.56836,5.89648c1.35937,0,1.88916-.82959,1.88916-2.24853,0-1.41944-.61963-2.40869-1.84912-2.40869h-1.15918v4.65722Z"/><path d="M162.11269,24.56689a2.53679,2.53679,0,0,1,2.52832-2.69873c1.64942,0,2.52881,1.25928,2.52881,3.08838h-3.71777a1.27419,1.27419,0,0,0,1.30908,1.2793.95713.95713,0,0,0,.98974-.62988h1.33887a2.20045,2.20045,0,0,1-2.31836,1.6792A2.53792,2.53792,0,0,1,162.11269,24.56689Zm1.35938-.5498h2.2788a1.08177,1.08177,0,0,0-1.08984-1.09961A1.141,1.141,0,0,0,163.47207,24.01709Z"/><path d="M167.2831,22.0083H168.662l.81933,2.6582c.15039.48975.23047.81983.23047.81983h.01953s.07032-.33008.21973-.81983l.83984-2.6582h1.35938l-1.78906,5.127h-1.29981Z"/><path d="M172.21279,24.56689a2.53679,2.53679,0,0,1,2.52832-2.69873c1.64941,0,2.52832,1.25928,2.52832,3.08838h-3.71777a1.27459,1.27459,0,0,0,1.30957,1.2793.95729.95729,0,0,0,.98925-.62988h1.33887a2.19933,2.19933,0,0,1-2.31836,1.6792A2.53754,2.53754,0,0,1,172.21279,24.56689Zm1.35937-.5498h2.27832a1.08148,1.08148,0,0,0-1.08984-1.09961A1.14063,1.14063,0,0,0,173.57216,24.01709Z"/><path d="M177.92275,19.98926h1.3584v7.146h-1.3584Z"/><path d="M179.93252,24.57666a2.67839,2.67839,0,1,1,2.67773,2.7085A2.60625,2.60625,0,0,1,179.93252,24.57666Zm3.97753,0c0-.99951-.46972-1.6792-1.2998-1.6792-.83887,0-1.29883.67969-1.29883,1.6792s.46,1.66895,1.29883,1.66895C183.44033,26.24561,183.91005,25.57617,183.91005,24.57666Z"/><path d="M185.92177,22.0083h1.30957V22.648h.03028a1.78975,1.78975,0,0,1,1.50879-.77979c1.35937,0,2.22851,1.10938,2.22851,2.7085,0,1.65918-.89941,2.7085-2.21875,2.7085a1.64911,1.64911,0,0,1-1.47851-.7295h-.02051v2.25879h-1.35938ZM189.62,24.6167c0-.96973-.33985-1.64893-1.17969-1.64893-.84961,0-1.18946.7295-1.18946,1.64893,0,.9292.43067,1.53906,1.24024,1.53906C189.18056,26.15576,189.62,25.58594,189.62,24.6167Z"/><path d="M191.63173,22.0083h1.30957v.68945h.03028a1.67315,1.67315,0,0,1,1.48926-.82959,1.53009,1.53009,0,0,1,1.41894.89942h.01953a1.78968,1.78968,0,0,1,1.53906-.89942,1.61333,1.61333,0,0,1,1.68946,1.81885v3.44824h-1.35938V23.917c0-.57959-.29-.87939-.78906-.87939-.57031,0-.91992.43945-.91992,1.11914v2.97851h-1.35938V23.917c0-.57959-.29-.87939-.78906-.87939-.5498,0-.91992.43945-.91992,1.11914v2.97851h-1.35938Z"/><path d="M199.72158,24.56689a2.53755,2.53755,0,0,1,2.52929-2.69873c1.64844,0,2.52832,1.25928,2.52832,3.08838h-3.71777a1.2746,1.2746,0,0,0,1.30957,1.2793.9573.9573,0,0,0,.98926-.62988h1.33887a2.19935,2.19935,0,0,1-2.31836,1.6792A2.53831,2.53831,0,0,1,199.72158,24.56689Zm1.35937-.5498h2.2793a1.08149,1.08149,0,0,0-1.08984-1.09961A1.14149,1.14149,0,0,0,201.081,24.01709Z"/><path d="M206.74111,22.70752h.03027a1.66607,1.66607,0,0,1,1.51953-.83936,1.76351,1.76351,0,0,1,1.76856,1.91895v3.34814h-1.35938V23.98682a.853.853,0,0,0-.88867-.93946,1.0723,1.0723,0,0,0-1.04,1.17969v2.9082H205.412v-5.127h1.3291Z"/><path d="M210.50185,22.0083h.71V20.40918h1.3291V22.0083h.87989v.89941h-.87989V25.626a.44982.44982,0,0,0,.50977.50976c.16992,0,.39941-.00976.39941-.00976v.99951s-.30957.01953-.84961.01953c-.65918,0-1.38867-.25977-1.38867-1.229V22.90771h-.71Z"/></svg>