<svg id="Layer_1" data-name="Layer 1" xmlns="http://www.w3.org/2000/svg" viewBox="0 0 243.03031 37.03109"><defs><style>.cls-1{fill:#f76902;}</style></defs><rect x="76.42174" y="6.03068" width="0.38184" height="24.96973"/><path class="cls-1" d="M39.57169,8.69993c.42994-1.12487,1.84974-1.12487,2.98962-1.12487h.212V6.02429s-4.44371.098-5.80284.098c-1.4002,0-5.55276-.098-5.55276-.098V7.57506h.212c1.13982,0,2.55968,0,2.98859,1.12291a21.36126,21.36126,0,0,1,.35695,4.85438v9.90674a21.4039,21.4039,0,0,1-.35592,4.85341c-.42994,1.12388-1.8498,1.12388-2.98962,1.12388h-.212v1.55181c-.0001-.00388,3.5923-.153,5.55912-.153,2.264,0,5.79648.153,5.79648.153V29.43638h-.212c-1.13988,0-2.55968,0-2.98865-1.12187a21.37019,21.37019,0,0,1-.35695-4.85542V13.55235A21.39209,21.39209,0,0,1,39.57169,8.69993Z"/><path class="cls-1" d="M46.14387,6.04891v6.47521h1.53979l.007-.204c.141-4.21347,1.75277-4.39143,5.38434-4.39143.125,0,.25,0,.37294-.001.90291-.006,1.75479-.011,2.08971.322a.62682.62682,0,0,1,.167.46894V25.74045c0,2.52569-.354,3.56956-3.91053,3.71658l-.203.008V31.0078s4.14644-.152,6.54562-.152c1.83163,0,5.9208.152,5.9208.152V29.465l-.20292-.008c-3.5576-.147-3.91053-1.19089-3.91053-3.71658V8.71856a.56271.56271,0,0,1,.163-.42194c.41-.403,1.53985-.38594,2.44769-.37294.172.003.341.005.501.005,3.55156,0,4.69638,1.02783,4.90338,4.39747l.012.198H69.5V6.04891s-8.96243.05844-11.67806.05844S46.14387,6.04891,46.14387,6.04891Z"/><path class="cls-1" d="M27.97229,29.43739a4.44236,4.44236,0,0,1-3.50458-1.84481l-7.37109-8.462c3.88153-.50593,6.27424-3.07262,6.27424-6.77816A5.45981,5.45981,0,0,0,20.6032,7.17909,12.28855,12.28855,0,0,0,14.668,6.02628c-.77792.019-2.64866.08343-4.70941.08343-2.13714,0-6.57722-.08643-6.57722-.08643V7.57406h.30794C4.86612,7.567,6.191,7.57205,6.542,8.68994a22.29994,22.29994,0,0,1,.32295,4.58941V23.45809a36.24205,36.24205,0,0,1-.14966,3.99725,4.81123,4.81123,0,0,1-.17427.86615c-.36,1.11389-1.79482,1.11389-2.94867,1.11389h-.211v1.55076s3.456-.15195,5.76631-.15195c1.98614,0,5.44042.14809,5.44031.15195V29.43538h-.307c-1.15788.005-2.47071.002-2.85366-1.1159a4.83029,4.83029,0,0,1-.17393-.86414,33.45853,33.45853,0,0,1-.149-3.72525V19.56861c1.37886.012,1.49884.157,2.20872,1.01386.131.158.281.338.454.53795l6.15219,7.634,1.8088,2.23171s1.98335-.08368,2.94727-.08368c1.40155,0,3.476.08674,3.476.08674V29.46534ZM11.10437,17.87278s-.001-9.01385-.002-9.06688c-.006-.35994-.016-.85188.284-.99084a19.72941,19.72941,0,0,1,2.32375-.019c3.16159,0,4.97638,1.85078,4.97638,5.07542,0,2.35066-.62493,3.6995-2.02576,4.37544C15.35489,17.87778,11.10437,17.87278,11.10437,17.87278Z"/><path d="M83.27441,7.3667h4.249v.59375H85.73682v4.77441h-.6753V7.96045H83.27441Z"/><path d="M88.70508,9.36377h.01513a1.45623,1.45623,0,0,1,1.231-.60059,1.16645,1.16645,0,0,1,1.30664,1.2461v2.72558h-.6084V10.062c0-.50293-.33007-.78808-.87841-.78808a1.02669,1.02669,0,0,0-1.06592,1.07324v2.38769h-.60791V7.3667h.60791Z"/><path d="M91.83936,10.79834a1.89371,1.89371,0,0,1,1.83935-2.042c1.16358,0,1.78662.90039,1.78662,2.18457H92.4624c.04492.78808.47315,1.38867,1.25342,1.38867a1.00619,1.00619,0,0,0,1.07373-.7959h.59326a1.58,1.58,0,0,1-1.667,1.30664A1.87433,1.87433,0,0,1,91.83936,10.79834Zm.63818-.31543H94.812c-.0376-.77344-.43506-1.24609-1.1333-1.24609C92.958,9.23682,92.56738,9.77686,92.47754,10.48291Z"/><path d="M96.999,10.91846h.66065a1.44551,1.44551,0,0,0,1.65918,1.38086c.74316,0,1.27636-.33789,1.27636-1.00586,0-.73535-.6455-.90821-1.60644-1.11817-.94629-.21093-1.75684-.48047-1.75684-1.49414,0-.88574.73584-1.41894,1.82422-1.41894A1.789,1.789,0,0,1,101.09082,8.936h-.63818A1.23715,1.23715,0,0,0,99.07129,7.7876c-.72852,0-1.209.30761-1.209.86328,0,.6084.60059.78808,1.4043.94629,1.04346.21,1.99658.46484,1.99658,1.67383,0,1.00586-.81836,1.56933-1.97412,1.56933A2.01068,2.01068,0,0,1,96.999,10.91846Z"/><path d="M101.69434,8.854h.563V7.63037h.6084V8.854h.75049v.49512h-.75049v2.52246c0,.27051.14258.36035.39014.36035a1.15391,1.15391,0,0,0,.32275-.05273h.023v.52539a2.35929,2.35929,0,0,1-.48828.05273c-.4956,0-.856-.20312-.856-.751V9.34912h-.563Z"/><path d="M106.71436,12.73486v-.5332h-.01514a1.3441,1.3441,0,0,1-1.1709.623,1.201,1.201,0,0,1-1.30664-1.28321V8.854h.6084v2.67188a.76427.76427,0,0,0,.8706.7959,1.004,1.004,0,0,0,1.01368-1.08106V8.854h.60791v3.88086Z"/><path d="M107.92676,10.80518c0-1.291.74316-2.042,1.7041-2.042a1.436,1.436,0,0,1,1.21631.63868h.01465V7.3667h.60839v5.36816h-.60839v-.47265h-.01465a1.40851,1.40851,0,0,1-1.20117.585C108.5874,12.84717,107.92676,12.05127,107.92676,10.80518Zm2.97265.00781c0-.90137-.43554-1.53125-1.23877-1.53125-.73535,0-1.11084.66015-1.11084,1.53125,0,.87793.37549,1.52441,1.11866,1.52441C110.53174,12.3374,110.89941,11.69092,110.89941,10.813Z"/><path d="M112.07422,10.79834a1.89341,1.89341,0,0,1,1.83935-2.042c1.16358,0,1.78663.90039,1.78663,2.18457h-3.00293c.04492.78808.47265,1.38867,1.2539,1.38867a1.006,1.006,0,0,0,1.07324-.7959h.59327a1.57988,1.57988,0,0,1-1.66651,1.30664A1.87443,1.87443,0,0,1,112.07422,10.79834Zm.63818-.31543h2.33448c-.0376-.77344-.43555-1.24609-1.13331-1.24609C113.19287,9.23682,112.80225,9.77686,112.7124,10.48291Z"/><path d="M116.89746,9.36377h.01514a1.45621,1.45621,0,0,1,1.231-.60059,1.16646,1.16646,0,0,1,1.30665,1.2461v2.72558h-.6084V10.062c0-.50293-.33008-.78808-.87842-.78808a1.02669,1.02669,0,0,0-1.06592,1.07324v2.38769h-.60791V8.854h.60791Z"/><path d="M119.92627,8.854h.563V7.63037h.6084V8.854h.75048v.49512h-.75048v2.52246c0,.27051.14257.36035.39013.36035a1.15406,1.15406,0,0,0,.32276-.05273h.02246v.52539a2.35075,2.35075,0,0,1-.4878.05273c-.4956,0-.85595-.20312-.85595-.751V9.34912h-.563Z"/><path d="M123.75928,7.3667h.67578V9.64893h2.86767V7.3667h.67579v5.36816h-.67579V10.19775h-2.86767v2.53711h-.67578Z"/><path d="M131.26855,12.19482h-.00732a1.56043,1.56043,0,0,1-1.291.61524c-.73583,0-1.314-.3457-1.314-1.08106,0-.916.7207-1.10351,1.689-1.2539.54834-.083.93116-.13477.93116-.55567,0-.43554-.31543-.68261-.8711-.68261-.63037,0-.9458.26953-.96826.85547h-.58545c.02246-.751.51807-1.31348,1.54639-1.31348.82568,0,1.43408.30762,1.43408,1.23047v1.84765c0,.31446.07471.48731.4126.41211h.02246v.44336a.82626.82626,0,0,1-.33008.05957A.59642.59642,0,0,1,131.26855,12.19482Zm.01514-.89355v-.66113a2.76937,2.76937,0,0,1-.88574.28515c-.60791.11328-1.09619.21778-1.09619.78907,0,.51757.40527.62988.80322.62988A1.09377,1.09377,0,0,0,131.28369,11.30127Z"/><path d="M132.73682,7.3667h.60791v5.36816h-.60791Z"/><path d="M134.21436,7.3667h.60791v5.36816h-.60791Z"/><path d="M136.61377,8.854h.5332V8.23c0-.668.38282-.9082,1.02832-.9082.12793,0,.2251.00781.30811.01562V7.855c-.10547-.00781-.13526-.00781-.19531-.00781-.39063,0-.53321.09765-.53321.41308V8.854h.72071v.49512h-.72071v3.38574H137.147V9.34912h-.5332Z"/><path d="M138.73633,10.79834a1.88,1.88,0,1,1,3.74609,0,1.88,1.88,0,1,1-3.74609,0Zm3.123,0c0-.85645-.42042-1.53906-1.2461-1.53906-.82617,0-1.2539.68261-1.2539,1.53906,0,.85547.42773,1.53125,1.2539,1.53125C141.439,12.32959,141.85938,11.65381,141.85938,10.79834Z"/><path d="M143.69434,9.49951h.01513a1.37606,1.37606,0,0,1,1.15576-.6914.58135.58135,0,0,1,.24805.04589v.585h-.02246a.733.733,0,0,0-.27051-.0371,1.11883,1.11883,0,0,0-1.126,1.17871v2.15429h-.60791V8.854h.60791Z"/><path d="M146.94141,7.3667h3.791v.59375h-3.11523V9.65674h2.83008v.57031h-2.83008v1.88477h3.20556v.623h-3.88134Z"/><path d="M152.61182,10.70068,151.3208,8.854h.70557l.92334,1.41114h.01513l.96094-1.41114h.668l-1.27588,1.77832,1.51611,2.10254h-.71289l-1.14892-1.667h-.01465l-1.12647,1.667h-.6831Z"/><path d="M155.28857,8.854h.60791v.54786h.01514a1.4558,1.4558,0,0,1,1.24609-.63868c.9834,0,1.66651.751,1.66651,2.042,0,1.24609-.63818,2.042-1.689,2.042a1.40686,1.40686,0,0,1-1.22363-.57031h-.01514V13.981h-.60791Zm2.9126,1.959c0-.8711-.36767-1.53125-1.10351-1.53125-.84815,0-1.23877.69043-1.23877,1.53125s.33789,1.52441,1.23144,1.52441C157.8335,12.3374,158.20117,11.69092,158.20117,10.813Z"/><path d="M159.45117,7.3667h.60791v5.36816h-.60791Z"/><path d="M160.68848,10.79834a1.88,1.88,0,1,1,3.74609,0,1.88,1.88,0,1,1-3.74609,0Zm3.123,0c0-.85645-.42041-1.53906-1.24609-1.53906-.82617,0-1.25391.68261-1.25391,1.53906,0,.85547.42774,1.53125,1.25391,1.53125C163.39111,12.32959,163.81152,11.65381,163.81152,10.79834Z"/><path d="M165.64648,9.49951h.01563a1.37522,1.37522,0,0,1,1.15527-.6914.57988.57988,0,0,1,.248.04589v.585H167.043a.73149.73149,0,0,0-.27051-.0371,1.11884,1.11884,0,0,0-1.126,1.17871v2.15429h-.60742V8.854h.60742Z"/><path d="M169.84082,12.19482H169.833a1.559,1.559,0,0,1-1.291.61524c-.73535,0-1.31347-.3457-1.31347-1.08106,0-.916.7207-1.10351,1.68847-1.2539.54883-.083.93164-.13477.93164-.55567,0-.43554-.31543-.68261-.87109-.68261-.63086,0-.94629.26953-.96875.85547h-.585c.02246-.751.51758-1.31348,1.5459-1.31348.82617,0,1.43457.30762,1.43457,1.23047v1.84765c0,.31446.07422.48731.41211.41211h.02246v.44336a.82254.82254,0,0,1-.33008.05957A.59576.59576,0,0,1,169.84082,12.19482Zm.01465-.89355v-.66113a2.76945,2.76945,0,0,1-.88574.28515c-.60743.11328-1.09571.21778-1.09571.78907,0,.51757.40528.62988.80274.62988A1.09346,1.09346,0,0,0,169.85547,11.30127Z"/><path d="M170.96289,8.854h.56348V7.63037h.6084V8.854h.75v.49512h-.75v2.52246c0,.27051.14257.36035.38964.36035a1.15793,1.15793,0,0,0,.32325-.05273h.02246v.52539a2.35186,2.35186,0,0,1-.48828.05273c-.49512,0-.85547-.20312-.85547-.751V9.34912h-.56348Z"/><path d="M173.51367,7.3667h.6084v.751h-.6084Zm0,1.4873h.6084v3.88086h-.6084Z"/><path d="M174.72852,10.79834a1.88,1.88,0,1,1,3.74609,0,1.88,1.88,0,1,1-3.74609,0Zm3.123,0c0-.85645-.4209-1.53906-1.24707-1.53906-.82519,0-1.25293.68261-1.25293,1.53906,0,.85547.42774,1.53125,1.25293,1.53125C177.43066,12.32959,177.85156,11.65381,177.85156,10.79834Z"/><path d="M179.68652,9.36377h.01465a1.45714,1.45714,0,0,1,1.23145-.60059,1.16592,1.16592,0,0,1,1.30566,1.2461v2.72558h-.60742V10.062c0-.50293-.33008-.78808-.87891-.78808a1.02657,1.02657,0,0,0-1.06543,1.07324v2.38769h-.6084V8.854h.6084Z"/><path d="M186.61035,12.19482h-.00781a1.56043,1.56043,0,0,1-1.291.61524c-.73632,0-1.31347-.3457-1.31347-1.08106,0-.916.7207-1.10351,1.68847-1.2539.54786-.083.93067-.13477.93067-.55567,0-.43554-.31446-.68261-.87012-.68261-.63086,0-.94629.26953-.96875.85547h-.58594c.02246-.751.51856-1.31348,1.54688-1.31348.82617,0,1.43359.30762,1.43359,1.23047v1.84765c0,.31446.0752.48731.41309.41211h.02246v.44336a.83.83,0,0,1-.33008.05957A.59576.59576,0,0,1,186.61035,12.19482Zm.01465-.89355v-.66113a2.76937,2.76937,0,0,1-.88574.28515c-.6084.11328-1.09571.21778-1.09571.78907,0,.51757.40528.62988.80274.62988A1.09408,1.09408,0,0,0,186.625,11.30127Z"/><path d="M188.66406,9.36377h.01465a1.45586,1.45586,0,0,1,1.23145-.60059,1.16592,1.16592,0,0,1,1.30566,1.2461v2.72558h-.60742V10.062c0-.50293-.33106-.78808-.87891-.78808a1.02657,1.02657,0,0,0-1.06543,1.07324v2.38769h-.6084V8.854h.6084Z"/><path d="M191.79785,10.80518c0-1.291.74317-2.042,1.7041-2.042a1.43385,1.43385,0,0,1,1.21582.63868h.01563V7.3667h.60742v5.36816h-.60742v-.47265h-.01563a1.40728,1.40728,0,0,1-1.20117.585C192.458,12.84717,191.79785,12.05127,191.79785,10.80518Zm2.97266.00781c0-.90137-.43555-1.53125-1.23828-1.53125-.73633,0-1.11133.66015-1.11133,1.53125,0,.87793.375,1.52441,1.11816,1.52441C194.40234,12.3374,194.77051,11.69092,194.77051,10.813Z"/><path d="M197.44531,7.3667h1.95215c1.61426,0,2.37988,1.09668,2.37988,2.70312s-.81836,2.665-2.43261,2.665h-1.89942Zm1.877,4.77539c1.26074,0,1.76367-.81152,1.76367-2.07227,0-1.26171-.4502-2.11718-1.71094-2.11718h-1.25391v4.18945Z"/><path d="M202.26758,10.79834a1.89334,1.89334,0,0,1,1.83887-2.042c1.16406,0,1.7871.90039,1.7871,2.18457h-3.00293c.04493.78808.47266,1.38867,1.25391,1.38867a1.006,1.006,0,0,0,1.07324-.7959h.59278a1.579,1.579,0,0,1-1.666,1.30664A1.87443,1.87443,0,0,1,202.26758,10.79834Zm.63769-.31543h2.335c-.03711-.77344-.43554-1.24609-1.13378-1.24609C203.38574,9.23682,202.99609,9.77686,202.90527,10.48291Z"/><path d="M206.00977,8.854h.65332l.80371,2.46192c.1123.3457.25488.81836.25488.81836h.01465s.14355-.48047.25586-.81836l.81836-2.46192h.63086l-1.39649,3.88086h-.67578Z"/><path d="M209.57324,10.79834a1.89334,1.89334,0,0,1,1.83887-2.042c1.16406,0,1.78711.90039,1.78711,2.18457h-3.00293c.04492.78808.47266,1.38867,1.25391,1.38867a1.006,1.006,0,0,0,1.07324-.7959h.59277a1.579,1.579,0,0,1-1.666,1.30664A1.87443,1.87443,0,0,1,209.57324,10.79834Zm.6377-.31543h2.335c-.03711-.77344-.43555-1.24609-1.13379-1.24609C210.69141,9.23682,210.30176,9.77686,210.21094,10.48291Z"/><path d="M213.81055,7.3667h.6084v5.36816h-.6084Z"/><path d="M215.04785,10.79834a1.88,1.88,0,1,1,3.7461,0,1.88,1.88,0,1,1-3.7461,0Zm3.123,0c0-.85645-.4209-1.53906-1.2461-1.53906-.82617,0-1.2539.68261-1.2539,1.53906,0,.85547.42773,1.53125,1.2539,1.53125C217.75,12.32959,218.1709,11.65381,218.1709,10.79834Z"/><path d="M219.39746,8.854h.6084v.54786h.01465a1.45578,1.45578,0,0,1,1.24609-.63868c.9834,0,1.667.751,1.667,2.042,0,1.24609-.63867,2.042-1.68945,2.042a1.40629,1.40629,0,0,1-1.22363-.57031h-.01465V13.981h-.6084Zm2.91309,1.959c0-.8711-.36817-1.53125-1.10352-1.53125-.84863,0-1.23926.69043-1.23926,1.53125s.33789,1.52441,1.23145,1.52441C221.94238,12.3374,222.31055,11.69092,222.31055,10.813Z"/><path d="M223.53809,8.854h.60839v.55469h.01465a1.36159,1.36159,0,0,1,1.14063-.64551,1.02062,1.02062,0,0,1,1.01367.69141h.01562a1.35709,1.35709,0,0,1,1.18555-.69141,1.12727,1.12727,0,0,1,1.17871,1.2461v2.72558h-.6084V10.03955a.70829.70829,0,0,0-.71289-.76562.99667.99667,0,0,0-.95312,1.04394v2.417h-.6084V10.03955a.67256.67256,0,0,0-.668-.76562,1.053,1.053,0,0,0-.99805,1.04394v2.417h-.60839Z"/><path d="M229.27539,10.79834a1.89334,1.89334,0,0,1,1.83887-2.042c1.16406,0,1.78711.90039,1.78711,2.18457h-3.00293c.04492.78808.47265,1.38867,1.2539,1.38867a1.006,1.006,0,0,0,1.07325-.7959h.59277a1.579,1.579,0,0,1-1.666,1.30664A1.87443,1.87443,0,0,1,229.27539,10.79834Zm.6377-.31543h2.335c-.03711-.77344-.43555-1.24609-1.13379-1.24609C230.39355,9.23682,230.00391,9.77686,229.91309,10.48291Z"/><path d="M234.09766,9.36377h.01562a1.45586,1.45586,0,0,1,1.23145-.60059,1.16592,1.16592,0,0,1,1.30566,1.2461v2.72558H236.043V10.062c0-.50293-.33106-.78808-.87891-.78808a1.02735,1.02735,0,0,0-1.0664,1.07324v2.38769h-.60743V8.854h.60743Z"/><path d="M237.127,8.854h.56348V7.63037h.60742V8.854h.751v.49512h-.751v2.52246c0,.27051.14258.36035.39063.36035a1.16434,1.16434,0,0,0,.32324-.05273h.02246v.52539a2.35186,2.35186,0,0,1-.48828.05273c-.49512,0-.85547-.20312-.85547-.751V9.34912H237.127Z"/><path d="M83.46924,16.85059H94.97168V19.291H90.6709v11.8623H87.77051V19.291H83.46924Z"/><path d="M98.92969,22.23145h.06006a3.27155,3.27155,0,0,1,2.98095-1.62012,3.53047,3.53047,0,0,1,3.54053,3.84082v6.70117h-2.7207V24.85156a1.70767,1.70767,0,0,0-1.78028-1.87988A2.14471,2.14471,0,0,0,98.92969,25.332v5.82129H96.20947V16.85059h2.72022Z"/><path d="M106.689,26.0127a5.0778,5.0778,0,0,1,5.061-5.40137c3.30078,0,5.06152,2.52051,5.06152,6.18066h-7.44189a2.55082,2.55082,0,0,0,2.6206,2.56055,1.91511,1.91511,0,0,0,1.98047-1.25977h2.68067a4.4039,4.4039,0,0,1-4.64112,3.36035A5.07918,5.07918,0,0,1,106.689,26.0127Zm2.72071-1.10059h4.561a2.164,2.164,0,0,0-2.18066-2.2002A2.28412,2.28412,0,0,0,109.40967,24.91211Z"/><path d="M121.00879,26.73242h2.84082c.20019,1.7207,1.18018,2.40039,3.2207,2.40039,1.48047,0,2.78028-.52051,2.78028-1.83984,0-1.40039-1.35987-1.68067-3.54053-2.18067-2.56055-.58007-4.90088-1.26074-4.90088-4.24121,0-2.82031,2.30029-4.28125,5.481-4.28125,3.2207,0,5.30127,1.58106,5.521,4.46094h-2.78027a2.467,2.467,0,0,0-2.76074-2.16016c-1.56006,0-2.58057.66016-2.58057,1.68067,0,1.16016,1.00049,1.5,3.12061,1.96,2.94091.64063,5.3413,1.34082,5.3413,4.4209,0,2.90137-2.34033,4.52148-5.561,4.52148C123.30957,31.47363,121.10889,29.75293,121.00879,26.73242Z"/><path d="M134.48877,16.85059h2.90088v5.60058h5.62109V16.85059h2.90039V31.15332h-2.90039V24.85156h-5.62109v6.30176h-2.90088Z"/><path d="M148.10889,16.85059h10.52246V19.291h-7.62158v3.20019h6.68115v2.38086h-6.68115v3.86035h7.68164v2.4209H148.10889Z"/><path d="M160.48877,16.85059h5.58154c3.82129,0,6.28125,3.08007,6.28125,7.30078a7.17818,7.17818,0,0,1-2.28027,5.62207,6.39079,6.39079,0,0,1-4.24121,1.37988h-5.34131Zm5.14111,11.80175c2.72071,0,3.78125-1.66015,3.78125-4.501,0-2.83985-1.24023-4.82032-3.70117-4.82032h-2.32031v9.32129Z"/></svg>