<svg id="Layer_1" data-name="Layer 1" xmlns="http://www.w3.org/2000/svg" width="2.97857in" height="0.51432in" viewBox="0 0 214.45681 37.03109"><defs><style>.cls-1{fill:#f76902;}.cls-2{fill:#231f20;}</style></defs><title>SC_The Construct_rgb_hor_k</title><rect x="76.42174" y="6.03068" width="0.38184" height="24.96973"/><path class="cls-1" d="M39.57169,8.69993c.42994-1.12487,1.84974-1.12487,2.98962-1.12487h.212V6.02429s-4.44371.098-5.80284.098c-1.4002,0-5.55276-.098-5.55276-.098V7.57506h.212c1.13982,0,2.55968,0,2.98859,1.12291a21.36126,21.36126,0,0,1,.35695,4.85438v9.90674a21.4039,21.4039,0,0,1-.35592,4.85341c-.42994,1.12388-1.8498,1.12388-2.98962,1.12388h-.212v1.55181c-.0001-.00388,3.5923-.153,5.55912-.153,2.264,0,5.79648.153,5.79648.153V29.43638h-.212c-1.13988,0-2.55968,0-2.98865-1.12187a21.37019,21.37019,0,0,1-.35695-4.85542V13.55235A21.39209,21.39209,0,0,1,39.57169,8.69993Z"/><path class="cls-1" d="M46.14387,6.04891v6.47521h1.53979l.007-.204c.141-4.21347,1.75277-4.39143,5.38434-4.39143.125,0,.25,0,.37294-.001.90291-.006,1.75479-.011,2.08971.322a.62682.62682,0,0,1,.167.46894V25.74045c0,2.52569-.354,3.56956-3.91053,3.71658l-.203.008V31.0078s4.14644-.152,6.54562-.152c1.83163,0,5.9208.152,5.9208.152V29.465l-.20292-.008c-3.5576-.147-3.91053-1.19089-3.91053-3.71658V8.71856a.56271.56271,0,0,1,.163-.42194c.41-.403,1.53985-.38594,2.44769-.37294.172.003.341.005.501.005,3.55156,0,4.69638,1.02783,4.90338,4.39747l.012.198H69.5V6.04891s-8.96243.05844-11.67806.05844S46.14387,6.04891,46.14387,6.04891Z"/><path class="cls-1" d="M27.97229,29.43739a4.44236,4.44236,0,0,1-3.50458-1.84481l-7.37109-8.462c3.88153-.50593,6.27424-3.07262,6.27424-6.77816A5.45981,5.45981,0,0,0,20.6032,7.17909,12.28855,12.28855,0,0,0,14.668,6.02628c-.77792.019-2.64866.08343-4.70941.08343-2.13714,0-6.57722-.08643-6.57722-.08643V7.57406h.30794C4.86612,7.567,6.191,7.57205,6.542,8.68994a22.29994,22.29994,0,0,1,.32295,4.58941V23.45809a36.24205,36.24205,0,0,1-.14966,3.99725,4.81123,4.81123,0,0,1-.17427.86615c-.36,1.11389-1.79482,1.11389-2.94867,1.11389h-.211v1.55076s3.456-.15195,5.76631-.15195c1.98614,0,5.44042.14809,5.44031.15195V29.43538h-.307c-1.15788.005-2.47071.002-2.85366-1.1159a4.83029,4.83029,0,0,1-.17393-.86414,33.45853,33.45853,0,0,1-.149-3.72525V19.56861c1.37886.012,1.49884.157,2.20872,1.01386.131.158.281.338.454.53795l6.15219,7.634,1.8088,2.23171s1.98335-.08368,2.94727-.08368c1.40155,0,3.476.08674,3.476.08674V29.46534ZM11.10437,17.87278s-.001-9.01385-.002-9.06688c-.006-.35994-.016-.85188.284-.99084a19.72941,19.72941,0,0,1,2.32375-.019c3.16159,0,4.97638,1.85078,4.97638,5.07542,0,2.35066-.62493,3.6995-2.02576,4.37544C15.35489,17.87778,11.10437,17.87278,11.10437,17.87278Z"/><polygon class="cls-2" points="82.96 11.214 85.835 11.214 88.711 11.214 91.586 11.214 94.462 11.214 94.462 11.824 94.462 12.434 94.462 13.044 94.462 13.654 93.387 13.654 92.312 13.654 91.236 13.654 90.161 13.654 90.161 16.62 90.161 19.586 90.161 22.552 90.161 25.517 89.436 25.517 88.711 25.517 87.986 25.517 87.26 25.517 87.26 22.552 87.26 19.586 87.26 16.62 87.26 13.654 86.185 13.654 85.11 13.654 84.035 13.654 82.96 13.654 82.96 13.044 82.96 12.434 82.96 11.824 82.96 11.214"/><path class="cls-2" d="M98.4199,16.5952h.06a4.82656,4.82656,0,0,1,.581-.70875,3.12418,3.12418,0,0,1,.662-.50625,2.958,2.958,0,0,1,.78576-.30375,4.15039,4.15039,0,0,1,.95224-.10125,3.651,3.651,0,0,1,1.44751.285,3.22579,3.22579,0,0,1,1.11749.795,3.57723,3.57723,0,0,1,.72088,1.21512,4.58319,4.58319,0,0,1,.25512,1.54588v6.701h-2.721v-6.302a2.34077,2.34077,0,0,0-.11788-.75775,1.67979,1.67979,0,0,0-.34513-.59425,1.53029,1.53029,0,0,0-.55837-.38888,1.98879,1.98879,0,0,0-.75863-.13912,2.03537,2.03537,0,0,0-.83212.17187,1.93408,1.93408,0,0,0-.65887.48313,2.22749,2.22749,0,0,0-.43375.74575,2.88171,2.88171,0,0,0-.15625.96025v5.821h-2.72V11.2142h2.72v5.381Z"/><path class="cls-2" d="M106.1789,20.3769a6.12219,6.12219,0,0,1,.36888-2.12725,5.18975,5.18975,0,0,1,1.03712-1.71475,4.7465,4.7465,0,0,1,1.59875-1.14338,5.39663,5.39663,0,0,1,4.24.03475,4.32565,4.32565,0,0,1,1.58525,1.26663,5.70555,5.70555,0,0,1,.966,1.95287,9.0765,9.0765,0,0,1,.327,2.51013h-7.442a3.97212,3.97212,0,0,0,.27725,1.067,2.57327,2.57327,0,0,0,.53075.806,2.1997,2.1997,0,0,0,.782.50962,2.85266,2.85266,0,0,0,1.031.17738,2.74615,2.74615,0,0,0,.71438-.08675,1.86948,1.86948,0,0,0,.56062-.25025,1.71681,1.71681,0,0,0,.41812-.39613,2.14175,2.14175,0,0,0,.28688-.52587h2.681a4.04117,4.04117,0,0,1-1.473,2.362,4.49528,4.49528,0,0,1-1.38262.72887,5.7309,5.7309,0,0,1-1.78538.26913,5.91926,5.91926,0,0,1-2.2665-.41975,4.686,4.686,0,0,1-1.6695-1.15325,4.98684,4.98684,0,0,1-1.03275-1.72613,6.36284,6.36284,0,0,1-.35325-2.14087m2.721-1.101h4.561a2.76095,2.76095,0,0,0-.2-.89263,2.18392,2.18392,0,0,0-.455-.69537,1.99477,1.99477,0,0,0-.673-.45113,2.24749,2.24749,0,0,0-.853-.16087,2.68864,2.68864,0,0,0-.94525.15525,1.93339,1.93339,0,0,0-.69475.44175,2.31174,2.31174,0,0,0-.46938.69387,3.85032,3.85032,0,0,0-.27062.90913"/><path class="cls-2" d="M120.519,18.4155a8.99041,8.99041,0,0,1,.4785-2.95838,7.05343,7.05343,0,0,1,1.3695-2.37262,6.22151,6.22151,0,0,1,2.16087-1.5775,7.038,7.038,0,0,1,2.85313-.5725,7.24054,7.24054,0,0,1,2.36474.37025A5.39512,5.39512,0,0,1,131.539,12.3245a4.985,4.985,0,0,1,1.1895,1.5295,5.56359,5.56359,0,0,1,.55349,1.9015h-2.881a3.11262,3.11262,0,0,0-.34525-.97988,2.61137,2.61137,0,0,0-.63174-.75112,2.78053,2.78053,0,0,0-.89888-.48063,3.99268,3.99268,0,0,0-2.86775.21875A3.38307,3.38307,0,0,0,124.44,14.8295a4.88415,4.88415,0,0,0-.72187,1.59987A7.84066,7.84066,0,0,0,123.48,18.4155a7.11472,7.11472,0,0,0,.275,2.01675,4.89483,4.89483,0,0,0,.785,1.58925,3.48986,3.48986,0,0,0,2.86,1.415,3.682,3.682,0,0,0,1.174-.18275,2.92449,2.92449,0,0,0,.937-.51425,2.66839,2.66839,0,0,0,.65225-.79638,2.87882,2.87882,0,0,0,.31775-1.02662h2.841a5.16914,5.16914,0,0,1-.14563.93312,5.108,5.108,0,0,1-.31438.89188,4.99184,4.99184,0,0,1-1.12,1.555,5.22986,5.22986,0,0,1-.814.62562,5.40949,5.40949,0,0,1-.982.47938,6.37493,6.37493,0,0,1-1.16949.30687,8.35717,8.35717,0,0,1-1.3765.10813,6.98834,6.98834,0,0,1-2.771-.55163,6.40716,6.40716,0,0,1-2.177-1.53637,6.99162,6.99162,0,0,1-1.42325-2.34263,8.54928,8.54928,0,0,1-.50975-2.97037"/><path class="cls-2" d="M134.19859,20.396a5.87072,5.87072,0,0,1,.39038-2.13788,5.15189,5.15189,0,0,1,1.09761-1.72012,5.01531,5.01531,0,0,1,1.69388-1.14638,5.90955,5.90955,0,0,1,4.35913,0,5.01443,5.01443,0,0,1,1.694,1.14638,5.16069,5.16069,0,0,1,1.09725,1.72012,6.04376,6.04376,0,0,1,0,4.27575,5.16064,5.16064,0,0,1-1.09725,1.72013,5.01426,5.01426,0,0,1-1.694,1.14637,5.90942,5.90942,0,0,1-4.35913,0,5.01514,5.01514,0,0,1-1.69388-1.14637,5.15184,5.15184,0,0,1-1.09761-1.72013,5.87063,5.87063,0,0,1-.39038-2.13787m7.962,0a5.104,5.104,0,0,0-.17288-1.36875,3.18057,3.18057,0,0,0-.50513-1.06125,2.27862,2.27862,0,0,0-.81637-.68625,2.65294,2.65294,0,0,0-2.22163,0,2.25446,2.25446,0,0,0-.815.68625,3.17119,3.17119,0,0,0-.5,1.06125,5.58262,5.58262,0,0,0,0,2.73437,3.12921,3.12921,0,0,0,.5,1.05438,2.24545,2.24545,0,0,0,.815.67987,2.67913,2.67913,0,0,0,2.22163,0,2.26953,2.26953,0,0,0,.81637-.67987,3.13856,3.13856,0,0,0,.50513-1.05438,5.0703,5.0703,0,0,0,.17288-1.36562"/><path class="cls-2" d="M148.8394,16.6548h.06a4.25963,4.25963,0,0,1,.57349-.7265,3.17265,3.17265,0,0,1,.6845-.5255,3.12834,3.12834,0,0,1,.81575-.32013,4.10121,4.10121,0,0,1,.96726-.10787,3.652,3.652,0,0,1,1.44762.285,3.23282,3.23282,0,0,1,1.11837.795,3.58964,3.58964,0,0,1,.72,1.21587,4.58361,4.58361,0,0,1,.255,1.54513v6.701h-2.721v-6.301a2.34242,2.34242,0,0,0-.11787-.75788,1.68711,1.68711,0,0,0-.34513-.59512,1.52615,1.52615,0,0,0-.55837-.38838,1.99368,1.99368,0,0,0-.75863-.13862,2.03734,2.03734,0,0,0-.83137.17137,1.9369,1.9369,0,0,0-.65962.48263,2.22839,2.22839,0,0,0-.43375.74612,2.88219,2.88219,0,0,0-.15625.95988v5.821h-2.72V15.2558h2.66v1.399Z"/><path class="cls-2" d="M156.5186,22.1968h2.521a2.17389,2.17389,0,0,0,.25349.76337,1.66179,1.66179,0,0,0,.47551.52863,2.029,2.029,0,0,0,.67112.30825,3.277,3.277,0,0,0,.83987.09975,3.53116,3.53116,0,0,0,.8-.08313,1.88694,1.88694,0,0,0,.59-.23687,1.08383,1.08383,0,0,0,.365-.37188.96969.96969,0,0,0,.125-.48812.816.816,0,0,0-.225-.58738,1.53878,1.53878,0,0,0-.6-.35562,6.03145,6.03145,0,0,0-.86262-.22513c-.31888-.06412-.66288-.12287-1.01338-.19287a13.0769,13.0769,0,0,1-1.34462-.32125,4.5433,4.5433,0,0,1-1.16538-.52375,2.42139,2.42139,0,0,1-.82-.87625,2.86159,2.86159,0,0,1-.31-1.37875,3.16248,3.16248,0,0,1,.32413-1.45,2.848,2.848,0,0,1,.88887-1.024,4.04326,4.04326,0,0,1,1.32725-.60675,6.38538,6.38538,0,0,1,1.64075-.20025,6.22985,6.22985,0,0,1,1.7985.24162,3.927,3.927,0,0,1,1.3395.68638,3.25606,3.25606,0,0,1,.87038,1.07187,3.90581,3.90581,0,0,1,.39262,1.40113h-2.461a1.95225,1.95225,0,0,0-.19687-.69925,1.29147,1.29147,0,0,0-.40312-.46375,1.70348,1.70348,0,0,0-.59813-.25738,3.41378,3.41378,0,0,0-.78188-.07962,3.26512,3.26512,0,0,0-.72225.074,1.8096,1.8096,0,0,0-.55575.218,1.0455,1.0455,0,0,0-.357.35712.95818.95818,0,0,0-.126.48988.67824.67824,0,0,0,.23576.52687,1.71887,1.71887,0,0,0,.62725.32213,7.8937,7.8937,0,0,0,.901.21237c.333.06338.692.12463,1.057.19963.43.09.8715.1875,1.29175.32062a4.51642,4.51642,0,0,1,1.16425.53438,2.52016,2.52016,0,0,1,.84088.91687,3.08974,3.08974,0,0,1,.32412,1.46813,3.04173,3.04173,0,0,1-.315,1.38562,2.96071,2.96071,0,0,1-.885,1.03838,4.17225,4.17225,0,0,1-1.36588.65112,6.4702,6.4702,0,0,1-1.75512.22588,7.06853,7.06853,0,0,1-1.98513-.25913,4.34163,4.34163,0,0,1-1.47288-.73387,3.39622,3.39622,0,0,1-.9445-1.14175,3.87616,3.87616,0,0,1-.39849-1.48525"/><path class="cls-2" d="M166.05859,15.2554h1.42v-3.201h2.661v3.201h1.76v1.8h-1.76v5.441a1.37828,1.37828,0,0,0,.075.48012.77773.77773,0,0,0,.21.31588.82776.82776,0,0,0,.32262.1725,1.4773,1.4773,0,0,0,.41337.0525c.08451,0,.177-.0015.268-.00363s.1805-.00487.259-.00737c.0785-.002.1465-.0045.19487-.0065l.07712-.0035v2.001s-.03875.0025-.11375.00625-.18625.00875-.33124.01375c-.145.0045-.32376.00925-.53376.01287s-.45124.00613-.72125.00613a4.19676,4.19676,0,0,1-.99137-.1115,2.64922,2.64922,0,0,1-.89463-.3905,1.96673,1.96673,0,0,1-.64624-.75438,2.7058,2.7058,0,0,1-.24875-1.20362v-6.021h-1.42v-1.8Z"/><path class="cls-2" d="M175.9189,16.895h.06a5.26939,5.26939,0,0,1,.48662-.76438,2.84434,2.84434,0,0,1,.55638-.55062,2.18988,2.18988,0,0,1,.66386-.33313,2.76947,2.76947,0,0,1,.81313-.11187c.075,0,.14275.00125.2045.004s.1175.007.1685.013a1.373,1.373,0,0,1,.14263.02512,1.01923,1.01923,0,0,1,.12537.03788v2.38h-.06a3.48807,3.48807,0,0,0-1.22963.07662,2.31965,2.31965,0,0,0-.96938.50638,2.37108,2.37108,0,0,0-.63425.94512,3.91715,3.91715,0,0,0-.22775,1.39288v5.001h-2.72V15.255h2.62v1.64Z"/><path class="cls-2" d="M186.7998,25.5171v-1.2h-.061a4.65774,4.65774,0,0,1-.55213.62787,3.09245,3.09245,0,0,1-.63987.46513,3.04483,3.04483,0,0,1-.77913.288,4.37915,4.37915,0,0,1-.96887.099,4.16072,4.16072,0,0,1-1.51863-.26313,3.022,3.022,0,0,1-1.11737-.74687,3.22732,3.22732,0,0,1-.689-1.16738,4.67383,4.67383,0,0,1-.236-1.52362v-6.841h2.701v6.381a2.80562,2.80562,0,0,0,.10212.797,1.5141,1.5141,0,0,0,.31287.584,1.32031,1.32031,0,0,0,.53.35725,2.32432,2.32432,0,0,0,1.617-.049,1.82329,1.82329,0,0,0,.649-.47825,2.1524,2.1524,0,0,0,.40724-.73463,2.98332,2.98332,0,0,0,.14175-.93637v-5.921h2.721v10.262h-2.62Z"/><path class="cls-2" d="M190.6777,20.396a6.26258,6.26258,0,0,1,.36138-2.13788A5.11843,5.11843,0,0,1,192.0687,16.538a4.68124,4.68124,0,0,1,1.61374-1.14638,5.32793,5.32793,0,0,1,2.11625-.41662,5.64389,5.64389,0,0,1,1.80013.27525,4.24336,4.24336,0,0,1,1.39288.77175,4.06856,4.06856,0,0,1,.962,1.18937,4.83159,4.83159,0,0,1,.506,1.52463h-2.66a2.15823,2.15823,0,0,0-.2295-.62663,1.89245,1.89245,0,0,0-.4035-.50137,1.79753,1.79753,0,0,0-.55763-.33175,1.97182,1.97182,0,0,0-.69037-.12025,2.46157,2.46157,0,0,0-1.07938.22775,2.07818,2.07818,0,0,0-.77563.64925,2.99077,2.99077,0,0,0-.46812,1.02137,5.29387,5.29387,0,0,0-.15688,1.34163,5.4737,5.4737,0,0,0,.14775,1.32475,3.03938,3.03938,0,0,0,.44925,1.02325,2.03617,2.03617,0,0,0,.76138.659,2.40688,2.40688,0,0,0,1.08162.233,2.5374,2.5374,0,0,0,.76151-.10875,1.82915,1.82915,0,0,0,.6145-.32625,1.76255,1.76255,0,0,0,.44187-.54375,2.39479,2.39479,0,0,0,.24313-.76125h2.62a4.32583,4.32583,0,0,1-.41249,1.53262,4.01216,4.01216,0,0,1-.9375,1.24538,4.28807,4.28807,0,0,1-1.41751.837,5.44636,5.44636,0,0,1-1.85249.306,5.65665,5.65665,0,0,1-2.18976-.41663A4.7737,4.7737,0,0,1,192.0927,24.254a5.06942,5.06942,0,0,1-1.04875-1.72013,6.17732,6.17732,0,0,1-.36625-2.13787"/><path class="cls-2" d="M201.1387,15.2554h1.42v-3.201h2.661v3.201h1.76v1.8h-1.76v5.441a1.3783,1.3783,0,0,0,.075.48012.77774.77774,0,0,0,.21.31588.82811.82811,0,0,0,.3225.1725,1.47276,1.47276,0,0,0,.4125.0525c.085,0,.1775-.0015.2685-.00363s.1805-.00487.2595-.00737c.0785-.002.1465-.0045.19487-.0065l.07712-.0035v2.001s-.03875.0025-.11375.00625-.18625.00875-.33124.01375c-.145.0045-.32376.00925-.53376.01287s-.45124.00613-.72125.00613a4.19676,4.19676,0,0,1-.99137-.1115,2.64922,2.64922,0,0,1-.89463-.3905,1.96673,1.96673,0,0,1-.64624-.75438,2.7058,2.7058,0,0,1-.24875-1.20362v-6.021h-1.42v-1.8Z"/></svg>